<svg width="47" height="48" viewBox="0 0 47 48" fill="none" xmlns="http://www.w3.org/2000/svg">
<path d="M1 15.7105V14.7105C0.70692 14.7105 0.428594 14.8391 0.238596 15.0622C0.0485991 15.2854 -0.0339403 15.5807 0.0127974 15.87L1 15.7105ZM46 15.7105L46.9872 15.87C47.0339 15.5807 46.9514 15.2854 46.7614 15.0622C46.5714 14.8391 46.2931 14.7105 46 14.7105V15.7105ZM41.0263 46.5V47.5C41.517 47.5 41.9353 47.1439 42.0135 46.6595L41.0263 46.5ZM5.97368 46.5L4.98648 46.6595C5.06474 47.1439 5.48296 47.5 5.97368 47.5V46.5ZM35.5263 15.7105C35.5263 16.2628 35.974 16.7105 36.5263 16.7105C37.0786 16.7105 37.5263 16.2628 37.5263 15.7105H35.5263ZM9.47368 15.7105C9.47368 16.2628 9.9214 16.7105 10.4737 16.7105C11.026 16.7105 11.4737 16.2628 11.4737 15.7105H9.47368ZM17.2266 34.1032C16.9202 33.6437 16.2994 33.5195 15.8398 33.8258C15.3803 34.1322 15.2561 34.7531 15.5625 35.2126L17.2266 34.1032ZM31.4371 35.2126C31.7435 34.7531 31.6193 34.1322 31.1598 33.8258C30.7002 33.5195 30.0794 33.6437 29.773 34.1032L31.4371 35.2126ZM1 15.7105V16.7105H46V15.7105V14.7105H1V15.7105ZM46 15.7105L45.0128 15.5511L40.0391 46.3405L41.0263 46.5L42.0135 46.6595L46.9872 15.87L46 15.7105ZM41.0263 46.5V45.5H5.97368V46.5V47.5H41.0263V46.5ZM5.97368 46.5L6.96089 46.3405L1.9872 15.5511L1 15.7105L0.0127974 15.87L4.98648 46.6595L5.97368 46.5ZM36.5263 15.7105H37.5263C37.5263 7.39418 31.3265 0.5 23.5 0.5V1.5V2.5C30.0617 2.5 35.5263 8.33135 35.5263 15.7105H36.5263ZM23.5 1.5V0.5C15.6735 0.5 9.47368 7.39418 9.47368 15.7105H10.4737H11.4737C11.4737 8.33135 16.9383 2.5 23.5 2.5V1.5ZM16.3945 34.6579C15.5625 35.2126 15.5627 35.213 15.563 35.2134C15.5631 35.2135 15.5634 35.214 15.5636 35.2143C15.564 35.2149 15.5644 35.2155 15.5649 35.2163C15.5659 35.2177 15.567 35.2193 15.5683 35.2212C15.5708 35.225 15.5739 35.2296 15.5777 35.235C15.5852 35.2458 15.595 35.26 15.6073 35.2773C15.6319 35.3119 15.6662 35.3589 15.7101 35.4166C15.798 35.5319 15.9249 35.6903 16.0912 35.8774C16.423 36.2507 16.9157 36.7428 17.5708 37.2342C18.8842 38.2192 20.8659 39.2105 23.4998 39.2105V38.2105V37.2105C21.3969 37.2105 19.8259 36.4255 18.7708 35.6342C18.2418 35.2374 17.8463 34.8414 17.586 34.5486C17.4562 34.4026 17.3612 34.2835 17.301 34.2045C17.2709 34.1651 17.2497 34.1357 17.2372 34.1183C17.231 34.1095 17.227 34.1038 17.2253 34.1012C17.2244 34.0999 17.224 34.0994 17.2242 34.0997C17.2244 34.0999 17.2246 34.1003 17.225 34.1008C17.2252 34.1011 17.2254 34.1015 17.2257 34.1019C17.2258 34.1021 17.226 34.1024 17.2261 34.1025C17.2263 34.1028 17.2266 34.1032 16.3945 34.6579ZM23.4998 38.2105V39.2105C26.1337 39.2105 28.1154 38.2192 29.4287 37.2342C30.0839 36.7428 30.5765 36.2507 30.9084 35.8774C31.0747 35.6903 31.2016 35.5319 31.2895 35.4166C31.3334 35.3589 31.3677 35.3119 31.3923 35.2773C31.4045 35.26 31.4144 35.2458 31.4219 35.235C31.4256 35.2296 31.4288 35.225 31.4313 35.2212C31.4326 35.2193 31.4337 35.2177 31.4347 35.2163C31.4351 35.2155 31.4356 35.2149 31.436 35.2143C31.4362 35.214 31.4365 35.2135 31.4366 35.2134C31.4368 35.213 31.4371 35.2126 30.6051 34.6579C29.773 34.1032 29.7732 34.1028 29.7735 34.1025C29.7735 34.1024 29.7738 34.1021 29.7739 34.1019C29.7742 34.1015 29.7744 34.1011 29.7746 34.1008C29.775 34.1003 29.7752 34.0999 29.7753 34.0997C29.7756 34.0994 29.7752 34.0999 29.7743 34.1012C29.7726 34.1038 29.7686 34.1095 29.7623 34.1183C29.7499 34.1357 29.7287 34.1651 29.6986 34.2045C29.6384 34.2835 29.5434 34.4026 29.4136 34.5486C29.1533 34.8414 28.7578 35.2374 28.2287 35.6342C27.1737 36.4255 25.6027 37.2105 23.4998 37.2105V38.2105ZM17.5786 26.3684H16.5786C16.5786 27.1242 15.966 27.7368 15.2102 27.7368V28.7368V29.7368C17.0705 29.7368 18.5786 28.2287 18.5786 26.3684H17.5786ZM15.2102 28.7368V27.7368C14.4545 27.7368 13.8418 27.1242 13.8418 26.3684H12.8418H11.8418C11.8418 28.2287 13.3499 29.7368 15.2102 29.7368V28.7368ZM12.8418 26.3684H13.8418C13.8418 25.6127 14.4545 25 15.2102 25V24V23C13.3499 23 11.8418 24.5081 11.8418 26.3684H12.8418ZM15.2102 24V25C15.966 25 16.5786 25.6127 16.5786 26.3684H17.5786H18.5786C18.5786 24.5081 17.0705 23 15.2102 23V24ZM34.1577 26.3684H33.1577C33.1577 27.1242 32.5451 27.7368 31.7893 27.7368V28.7368V29.7368C33.6496 29.7368 35.1577 28.2287 35.1577 26.3684H34.1577ZM31.7893 28.7368V27.7368C31.0336 27.7368 30.4209 27.1242 30.4209 26.3684H29.4209H28.4209C28.4209 28.2287 29.929 29.7368 31.7893 29.7368V28.7368ZM29.4209 26.3684H30.4209C30.4209 25.6127 31.0336 25 31.7893 25V24V23C29.929 23 28.4209 24.5081 28.4209 26.3684H29.4209ZM31.7893 24V25C32.5451 25 33.1577 25.6127 33.1577 26.3684H34.1577H35.1577C35.1577 24.5081 33.6496 23 31.7893 23V24Z" fill="#015CAB"/>
</svg>
