<svg width="55" height="48" viewBox="0 0 55 48" fill="none" xmlns="http://www.w3.org/2000/svg">
<path d="M5.58398 12.25C6.84371 12.25 8.05162 12.7508 8.94238 13.6416C9.83304 14.5324 10.334 15.7403 10.334 17V26.9912C11.1602 26.3325 12.1872 25.9643 13.2539 25.9551C14.4213 25.9451 15.5484 26.3655 16.4229 27.1309L16.5947 27.2881L16.6045 27.2969H16.6035L21.7764 32.4688V32.4697C23.4155 34.1109 24.3365 36.3358 24.3359 38.6553V46.999C24.3359 47.413 23.9999 47.7487 23.5859 47.749C23.1717 47.749 22.836 47.4132 22.8359 46.999V38.6553C22.8365 36.7332 22.0732 34.8892 20.7148 33.5293L15.5527 28.3672L15.4355 28.2588C14.8372 27.7351 14.0654 27.4482 13.2666 27.4551C12.4147 27.4625 11.5996 27.8039 10.9971 28.4062C10.3945 29.0088 10.0523 29.8246 10.0449 30.6768C10.0377 31.5244 10.362 32.3413 10.9482 32.9531L13.7764 35.7812L13.8271 35.8379C14.0675 36.1324 14.0508 36.5671 13.7764 36.8418C13.5019 37.1163 13.067 37.1335 12.7725 36.8936L12.7158 36.8418L9.8877 34.0137L9.87793 34.0049C9.0127 33.109 8.53411 31.9085 8.54492 30.6631C8.54974 30.1123 8.65009 29.572 8.83691 29.0645C8.83509 29.0432 8.834 29.0217 8.83398 29V17C8.83398 16.1382 8.49119 15.3116 7.88184 14.7021C7.27238 14.0927 6.44588 13.75 5.58398 13.75C4.72205 13.75 3.89561 14.0927 3.28613 14.7021C2.67671 15.3116 2.33398 16.1381 2.33398 17V33.6875L2.34277 34.0469C2.43207 35.8386 3.18331 37.5392 4.45801 38.8135L12.1143 46.4688L12.166 46.5264C12.4057 46.8208 12.3884 47.2549 12.1143 47.5293C11.8397 47.8038 11.4049 47.8213 11.1104 47.5811L11.0537 47.5293L3.39746 39.874C1.8592 38.3362 0.952603 36.2842 0.844727 34.1221L0.833984 33.6875V17C0.833984 15.7403 1.33486 14.5324 2.22559 13.6416C3.11637 12.7508 4.32422 12.25 5.58398 12.25ZM49.415 12.25C50.6748 12.25 51.8827 12.7509 52.7734 13.6416C53.6641 14.5324 54.165 15.7403 54.165 17V33.6875C54.1645 36.0078 53.2425 38.2335 51.6016 39.874L43.9453 47.5293C43.6525 47.822 43.1776 47.822 42.8848 47.5293C42.5922 47.2364 42.5921 46.7615 42.8848 46.4688L50.541 38.8135C51.8157 37.5392 52.567 35.8386 52.6562 34.0469L52.665 33.6875V17C52.665 16.1381 52.3223 15.3116 51.7129 14.7021C51.1034 14.0927 50.2769 13.75 49.415 13.75C48.5532 13.75 47.7266 14.0927 47.1172 14.7021C46.5078 15.3116 46.165 16.1382 46.165 17V29C46.165 29.0187 46.1635 29.0373 46.1621 29.0557C46.351 29.5658 46.4532 30.1091 46.458 30.6631C46.4688 31.9085 45.9902 33.1091 45.125 34.0049L45.1152 34.0137L42.2871 36.8418C41.9942 37.1344 41.5194 37.1345 41.2266 36.8418C40.9339 36.549 40.934 36.0741 41.2266 35.7812L44.0547 32.9531C44.6409 32.3413 44.9653 31.5244 44.958 30.6768C44.9506 29.8247 44.6084 29.0088 44.0059 28.4062C43.4034 27.8039 42.5882 27.4625 41.7363 27.4551C40.8842 27.4477 40.0631 27.7752 39.4502 28.3672L34.2881 33.5303L34.2871 33.5293C32.9289 34.8892 32.1664 36.7333 32.167 38.6553V46.999C32.167 47.4132 31.8311 47.7489 31.417 47.749C31.003 47.7488 30.667 47.4131 30.667 46.999V38.6553C30.6664 36.3356 31.5872 34.1099 33.2266 32.4688L38.3994 27.2969L38.4082 27.2881L38.5801 27.1309C39.4545 26.3655 40.5816 25.945 41.749 25.9551C42.8141 25.9644 43.8395 26.3314 44.665 26.9883V17C44.665 15.7403 45.166 14.5324 46.0566 13.6416C46.9474 12.7509 48.1553 12.25 49.415 12.25ZM27.585 0.25C27.8266 0.250031 28.0545 0.366162 28.1953 0.5625L27.5859 1L28.1953 0.563477L28.1963 0.56543C28.1974 0.566945 28.1992 0.569481 28.2012 0.572266C28.2052 0.577947 28.212 0.585853 28.2197 0.59668C28.2353 0.618551 28.2574 0.651411 28.2871 0.693359C28.3467 0.777526 28.4345 0.90117 28.5449 1.05957C28.7658 1.37644 29.0805 1.83365 29.458 2.39551C30.2129 3.51904 31.2207 5.06594 32.2295 6.75684C33.2369 8.44545 34.2536 10.2912 35.0205 12.0088C35.774 13.6965 36.3342 15.3636 36.335 16.6611L36.3262 17.1074C36.2271 19.3324 35.329 21.4535 33.7891 23.0762L33.7861 23.0791C32.1484 24.7824 29.9146 25.7498 27.5859 25.75C25.4022 25.75 23.306 24.8992 21.7031 23.3896L21.3887 23.0791C19.7519 21.3725 18.836 19.0612 18.8359 16.6641C18.8359 15.3672 19.3964 13.6993 20.1504 12.0107C20.9173 10.2934 21.934 8.44763 22.9414 6.75879C23.9503 5.06745 24.958 3.51941 25.7129 2.39551C26.0904 1.83348 26.4052 1.37649 26.626 1.05957C26.7364 0.901085 26.8242 0.777545 26.8838 0.693359C26.9135 0.651384 26.9356 0.61853 26.9512 0.59668C26.9589 0.585782 26.9657 0.577942 26.9697 0.572266C26.9717 0.569541 26.9726 0.56692 26.9736 0.56543L26.9756 0.563477C27.1163 0.367153 27.3434 0.250162 27.585 0.25ZM26.958 3.23242C26.2129 4.3417 25.2205 5.86585 24.2295 7.52734C23.237 9.19133 22.2536 10.9804 21.5205 12.6221C20.7746 14.2926 20.3359 15.7091 20.3359 16.6641C20.336 18.6825 21.1078 20.6188 22.4707 22.04H22.4697C23.832 23.4568 25.6754 24.25 27.5859 24.25C29.4952 24.2498 31.3396 23.4572 32.7012 22.043C34.0779 20.5922 34.8422 18.6661 34.835 16.666V16.6641C34.835 15.708 34.3963 14.2907 33.6504 12.6201C32.9173 10.9783 31.9339 9.18911 30.9414 7.52539C29.9504 5.86418 28.9579 4.34038 28.2129 3.23145C27.977 2.88028 27.763 2.57299 27.585 2.31445C27.407 2.57306 27.1939 2.8812 26.958 3.23242Z" fill="#FBAE42"/>
</svg>
