<svg width="47" height="30" viewBox="0 0 47 30" fill="none" xmlns="http://www.w3.org/2000/svg">
<g clip-path="url(#clip0_1985_11277)">
<path d="M0 0H47V30H0V0Z" fill="#16366F"/>
<path d="M27.0555 15C27.0555 20.9486 22.2127 25.77 16.2389 25.77C10.2651 25.77 5.42285 20.9483 5.42285 15C5.42285 9.052 10.2652 4.22998 16.2389 4.22998C22.2125 4.22998 27.0555 9.05218 27.0555 15Z" fill="#D9222A"/>
<path d="M30.7605 4.22974C27.9658 4.22974 25.4192 5.2855 23.4996 7.0177C23.1085 7.37104 22.7435 7.75192 22.4075 8.15746H24.5927C24.892 8.51968 25.1673 8.90074 25.4173 9.29824H21.5829C21.3523 9.6655 21.1443 10.0464 20.9598 10.4387H26.0401C26.2145 10.8098 26.3674 11.1905 26.4981 11.579H20.5019C20.3759 11.9531 20.271 12.3338 20.1875 12.7195H26.8121C26.9741 13.4689 27.0558 14.2334 27.0556 15C27.0556 16.196 26.8595 17.3468 26.498 18.4212H20.5017C20.6321 18.8099 20.7849 19.1907 20.9594 19.5618H26.04C25.8554 19.9542 25.6472 20.3351 25.4166 20.7026H21.5827C21.833 21.1003 22.1088 21.4813 22.4073 21.8423H24.5921C24.2565 22.2486 23.8913 22.6299 23.4997 22.983C25.4194 24.7151 27.9658 25.7703 30.7606 25.7703C36.7343 25.7702 41.5772 20.9486 41.5772 15.0003C41.5772 9.05248 36.7344 4.23028 30.7606 4.23028" fill="#EE9F2D"/>
<path d="M40.1353 21.0036C40.1353 20.8116 40.2914 20.6556 40.4845 20.6556C40.6776 20.6556 40.8337 20.8116 40.8337 21.0036C40.8337 21.1956 40.6776 21.3516 40.4845 21.3516C40.2916 21.3515 40.1352 21.1957 40.1353 21.0036ZM40.4845 21.2681C40.6312 21.2681 40.7501 21.1496 40.7501 21.0036C40.7501 20.8577 40.6313 20.7394 40.4847 20.7394H40.4845C40.3381 20.7392 40.2194 20.8572 40.2191 21.0029V21.0037C40.219 21.1496 40.3377 21.2681 40.4842 21.2682C40.4843 21.2681 40.4844 21.2681 40.4845 21.2681ZM40.4373 21.1565H40.3657V20.8509H40.4952C40.5223 20.8509 40.5499 20.8509 40.5739 20.8661C40.5988 20.8828 40.6128 20.9123 40.6128 20.9428C40.6128 20.977 40.5925 21.009 40.5596 21.0215L40.616 21.1565H40.5368L40.4898 21.0356H40.4374L40.4373 21.1565ZM40.4373 20.9831H40.477C40.4918 20.9831 40.5073 20.9843 40.5207 20.9771C40.5325 20.9696 40.5385 20.9556 40.5385 20.9421C40.5385 20.9304 40.5313 20.9169 40.5211 20.9111C40.5087 20.9033 40.4888 20.9051 40.4755 20.9051H40.4373V20.9831ZM13.7136 16.1793C13.5904 16.1651 13.5361 16.1613 13.4515 16.1613C12.786 16.1613 12.449 16.3886 12.449 16.8374C12.449 17.114 12.6135 17.2901 12.87 17.2901C13.3483 17.2901 13.6931 16.8365 13.7136 16.1793ZM14.5675 18.1591H13.5946L13.617 17.6985C13.3202 18.0626 12.9242 18.2355 12.3862 18.2355C11.7498 18.2355 11.3134 17.7405 11.3134 17.0218C11.3134 15.9404 12.0724 15.3094 13.3752 15.3094C13.5083 15.3094 13.679 15.3214 13.8537 15.3435C13.8902 15.1971 13.8997 15.1344 13.8997 15.0555C13.8997 14.7611 13.695 14.6513 13.1465 14.6513C12.572 14.6448 12.0982 14.7875 11.9037 14.8513C11.916 14.7775 12.0664 13.8518 12.0664 13.8518C12.6516 13.6811 13.0375 13.6168 13.4719 13.6168C14.4801 13.6168 15.0142 14.0675 15.0132 14.9195C15.0151 15.1478 14.9772 15.4295 14.918 15.7998C14.8161 16.4436 14.5974 17.8229 14.5675 18.1591ZM10.8221 18.1591H9.6478L10.3204 13.9593L8.81855 18.1591H8.01835L7.91953 13.9833L7.21248 18.1591H6.11328L7.03147 12.6959H8.71985L8.82229 15.7538L9.85219 12.6959H11.7302L10.8221 18.1591ZM32.2119 16.1793C32.0892 16.1651 32.0346 16.1613 31.9503 16.1613C31.285 16.1613 30.948 16.3886 30.948 16.8374C30.948 17.114 31.1122 17.2901 31.3687 17.2901C31.8471 17.2901 32.1921 16.8365 32.2119 16.1793ZM33.0665 18.1591H32.0937L32.1157 17.6985C31.8189 18.0626 31.4227 18.2355 30.8852 18.2355C30.2486 18.2355 29.8127 17.7405 29.8127 17.0218C29.8127 15.9404 30.5711 15.3094 31.8742 15.3094C32.0072 15.3094 32.1777 15.3214 32.3522 15.3435C32.3886 15.1971 32.3982 15.1344 32.3982 15.0555C32.3982 14.7611 32.1938 14.6513 31.6453 14.6513C31.0708 14.6448 30.5975 14.7875 30.4022 14.8513C30.4145 14.7775 30.5654 13.8518 30.5654 13.8518C31.1507 13.6811 31.5363 13.6168 31.9701 13.6168C32.9788 13.6168 33.5129 14.0675 33.5119 14.9195C33.5139 15.1478 33.476 15.4295 33.4167 15.7998C33.3154 16.4436 33.0962 17.8229 33.0665 18.1591ZM19.7866 18.0916C19.4652 18.1924 19.2147 18.2355 18.943 18.2355C18.3427 18.2355 18.0151 17.892 18.0151 17.2595C18.0065 17.0633 18.1014 16.5468 18.176 16.0753C18.2437 15.6603 18.6851 13.0435 18.6851 13.0435H19.8523L19.716 13.716H20.421L20.2618 14.7838H19.5543C19.4187 15.6288 19.2256 16.6813 19.2234 16.8208C19.2234 17.0498 19.3461 17.1498 19.6253 17.1498C19.7591 17.1498 19.8628 17.1362 19.9419 17.1078L19.7866 18.0916ZM23.3653 18.0556C22.9643 18.1776 22.5774 18.2366 22.1675 18.2356C20.8609 18.2343 20.1798 17.5548 20.1798 16.2537C20.1798 14.7349 21.0463 13.6169 22.2225 13.6169C23.1848 13.6169 23.7994 14.2428 23.7994 15.2246C23.7994 15.5504 23.7572 15.8684 23.6556 16.3173H21.3312C21.2526 16.9619 21.6668 17.2304 22.3457 17.2304C22.7636 17.2304 23.1404 17.1446 23.5594 16.9506L23.3653 18.0556ZM22.7093 15.4216C22.7157 15.329 22.833 14.6286 22.1662 14.6286C21.7944 14.6286 21.5285 14.9108 21.4202 15.4216H22.7093ZM15.2724 15.1206C15.2724 15.6826 15.5461 16.0701 16.1667 16.3611C16.6422 16.5837 16.7158 16.6497 16.7158 16.8513C16.7158 17.1284 16.5061 17.2533 16.0414 17.2533C15.6912 17.2533 15.3654 17.1989 14.9895 17.0781C14.9895 17.0781 14.835 18.0573 14.828 18.1042C15.0949 18.1622 15.3329 18.2159 16.05 18.2356C17.289 18.2356 17.8612 17.7659 17.8612 16.7506C17.8612 16.1401 17.6217 15.7818 17.0334 15.5126C16.5411 15.2876 16.4846 15.2373 16.4846 15.0299C16.4846 14.7896 16.6797 14.6671 17.0593 14.6671C17.2898 14.6671 17.6046 14.6916 17.9029 14.7339L18.0701 13.7034C17.766 13.6554 17.3051 13.6169 17.0367 13.6169C15.7231 13.6169 15.2684 14.3001 15.2724 15.1206ZM29.0766 13.7336C29.4027 13.7336 29.7068 13.8188 30.1258 14.0288L30.3179 12.8431C30.1459 12.7759 29.5403 12.3811 29.0274 12.3811C28.2415 12.3811 27.5773 12.7693 27.1101 13.4101C26.4286 13.1853 26.1484 13.6396 25.805 14.0921L25.4999 14.1629C25.523 14.0139 25.5439 13.8659 25.5369 13.7161H24.4585C24.3112 15.0911 24.0501 16.4839 23.8457 17.8606L23.7924 18.1592H24.9672C25.1632 16.8906 25.2707 16.0783 25.336 15.5286L25.7784 15.2836C25.8444 15.0388 26.0513 14.9561 26.4663 14.9661C26.4105 15.2666 26.3826 15.5715 26.3829 15.8771C26.3829 17.3306 27.1705 18.2356 28.4347 18.2356C28.7603 18.2356 29.0398 18.1929 29.4723 18.0762L29.6791 16.8306C29.2898 17.0214 28.9704 17.1111 28.6812 17.1111C27.9986 17.1111 27.5855 16.6094 27.5855 15.7801C27.5855 14.5771 28.1998 13.7336 29.0766 13.7336Z" fill="black"/>
<path d="M11.16 17.8343H9.98551L10.6586 13.6351L9.15668 17.8343H8.35636L8.25742 13.6591L7.55043 17.8343H6.45117L7.36936 12.3718H9.05774L9.10523 15.7535L10.2443 12.3718H12.0681L11.16 17.8343Z" fill="white"/>
<path d="M39.0174 12.696L38.7571 14.2745C38.436 13.8538 38.0911 13.5493 37.6356 13.5493C37.0431 13.5493 36.5038 13.9965 36.1508 14.6548C35.6592 14.5533 35.1507 14.381 35.1507 14.381L35.1505 14.385C35.1901 14.0171 35.2059 13.7925 35.2024 13.7163H34.1238C33.977 15.0913 33.7159 16.4841 33.5118 17.8608L33.458 18.1593H34.6325C34.7912 17.1335 34.9127 16.2818 35.0021 15.6063C35.4033 15.2453 35.6042 14.9303 36.0096 14.9513C35.8301 15.3836 35.7249 15.8815 35.7249 16.3923C35.7249 17.5031 36.2893 18.2358 37.143 18.2358C37.5733 18.2358 37.9034 18.0881 38.2256 17.7456L38.1706 18.1586H39.2813L40.1756 12.696H39.0174ZM37.5489 17.1326C37.1492 17.1326 36.9474 16.838 36.9474 16.2567C36.9474 15.3836 37.3253 14.7642 37.858 14.7642C38.2614 14.7642 38.4798 15.0705 38.4798 15.6347C38.4799 16.5156 38.0961 17.1326 37.5489 17.1326Z" fill="black"/>
<path d="M14.0511 15.8556C13.928 15.8415 13.8736 15.8376 13.7892 15.8376C13.1236 15.8376 12.7869 16.0649 12.7869 16.5137C12.7869 16.7899 12.9514 16.9665 13.2075 16.9665C13.6862 16.9664 14.031 16.5129 14.0511 15.8556ZM14.9055 17.8347H13.9326L13.9547 17.3749C13.6581 17.7381 13.2617 17.9119 12.7242 17.9119C12.0874 17.9119 11.6514 17.4169 11.6514 16.6982C11.6514 15.6162 12.4101 14.9856 13.7131 14.9856C13.8462 14.9856 14.0169 14.9976 14.1914 15.0199C14.2278 14.8734 14.2373 14.8107 14.2373 14.7314C14.2373 14.4369 14.033 14.3276 13.4844 14.3276C12.9097 14.3211 12.4362 14.4639 12.2413 14.5269C12.2536 14.4534 12.404 13.5287 12.404 13.5287C12.9891 13.3572 13.3754 13.2929 13.8093 13.2929C14.8178 13.2929 15.3521 13.7439 15.3511 14.5952C15.3529 14.8244 15.3147 15.1059 15.2557 15.4757C15.154 16.1192 14.9351 17.4992 14.9055 17.8347ZM30.6553 12.5192L30.4629 13.7052C30.0442 13.4954 29.7399 13.4099 29.4141 13.4099C28.5373 13.4099 27.9227 14.2534 27.9227 15.4563C27.9227 16.2856 28.3359 16.7872 29.0184 16.7872C29.3076 16.7872 29.6267 16.6977 30.0158 16.5066L29.8098 17.7516C29.3769 17.8691 29.0978 17.9119 28.7718 17.9119C27.5078 17.9119 26.72 17.0069 26.72 15.5534C26.72 13.6004 27.8082 12.2354 29.3646 12.2354C29.8772 12.2354 30.4831 12.4519 30.6553 12.5192ZM32.5499 15.8556C32.4269 15.8415 32.3726 15.8376 32.288 15.8376C31.6226 15.8376 31.2857 16.0649 31.2857 16.5137C31.2857 16.7899 31.4501 16.9665 31.7065 16.9665C32.1848 16.9664 32.5297 16.5129 32.5499 15.8556ZM33.4042 17.8347H32.4311L32.4534 17.3749C32.1567 17.7381 31.7604 17.9119 31.2229 17.9119C30.5865 17.9119 30.1501 17.4169 30.1501 16.6982C30.1501 15.6162 30.9091 14.9856 32.2116 14.9856C32.345 14.9856 32.5154 14.9976 32.6901 15.0199C32.7263 14.8734 32.7361 14.8107 32.7361 14.7314C32.7361 14.4369 32.5317 14.3276 31.9831 14.3276C31.4087 14.3211 30.9349 14.4639 30.7401 14.5269C30.7524 14.4534 30.9031 13.5287 30.9031 13.5287C31.4881 13.3572 31.8741 13.2929 32.308 13.2929C33.3168 13.2929 33.8508 13.7439 33.8495 14.5952C33.8516 14.8244 33.8137 15.1059 33.7544 15.4757C33.653 16.1192 33.4336 17.4992 33.4042 17.8347ZM20.1243 17.7674C19.8027 17.8682 19.5521 17.9119 19.2807 17.9119C18.6804 17.9119 18.3528 17.5683 18.3528 16.9359C18.3445 16.7391 18.4394 16.2231 18.514 15.7517C18.5815 15.3361 19.0229 12.7197 19.0229 12.7197H20.1899L20.0538 13.3924H20.6528L20.4934 14.4597H19.8923C19.7568 15.3051 19.5632 16.3568 19.5612 16.4966C19.5612 16.7264 19.6842 16.8256 19.9631 16.8256C20.0969 16.8256 20.2004 16.8126 20.2797 16.7841L20.1243 17.7674ZM23.7031 17.7319C23.3024 17.8539 22.9149 17.9127 22.5052 17.9119C21.1986 17.9106 20.5175 17.2311 20.5175 15.9299C20.5175 14.4107 21.384 13.2929 22.5602 13.2929C23.5225 13.2929 24.1371 13.9187 24.1371 14.9009C24.1371 15.2269 24.0949 15.5449 23.9936 15.9936H21.6692C21.5905 16.6381 22.0047 16.9069 22.6837 16.9069C23.1013 16.9069 23.4784 16.8209 23.8971 16.6263L23.7031 17.7319ZM23.0468 15.0972C23.0538 15.0049 23.1708 14.3042 22.5037 14.3042C22.1321 14.3042 21.8662 14.5872 21.758 15.0972H23.0468ZM15.6099 14.7969C15.6099 15.3588 15.8836 15.7459 16.5042 16.0374C16.9797 16.2599 17.0533 16.3262 17.0533 16.5276C17.0533 16.8047 16.8434 16.9296 16.3792 16.9296C16.0287 16.9296 15.7028 16.8752 15.3267 16.7544C15.3267 16.7544 15.1728 17.7336 15.1658 17.7804C15.4322 17.8385 15.6704 17.8914 16.3875 17.9119C17.6268 17.9119 18.1987 17.4422 18.1987 16.4271C18.1987 15.8163 17.9594 15.4581 17.3709 15.1889C16.8788 14.9634 16.8218 14.9139 16.8218 14.7062C16.8218 14.4662 17.0174 14.3427 17.3968 14.3427C17.627 14.3427 17.9418 14.3679 18.2406 14.4102L18.4076 13.3794C18.1038 13.3314 17.6428 13.2929 17.3744 13.2929C16.0606 13.2929 15.6062 13.9757 15.6099 14.7969ZM39.6191 17.8347H38.5081L38.5634 17.4211C38.2412 17.7641 37.9111 17.9119 37.4808 17.9119C36.627 17.9119 36.0629 17.1791 36.0629 16.0684C36.0629 14.5906 36.9379 13.3448 37.9736 13.3448C38.429 13.3448 38.7738 13.5301 39.0946 13.9506L39.3552 12.3721H40.5134L39.6191 17.8347ZM37.887 16.8081C38.4338 16.8081 38.818 16.1912 38.818 15.311C38.818 14.7467 38.5992 14.4404 38.1958 14.4404C37.6633 14.4404 37.285 15.0594 37.285 15.9329C37.2849 16.5141 37.4873 16.8081 37.887 16.8081ZM34.4619 13.3924C34.3149 14.7674 34.0537 16.1602 33.8495 17.5362L33.7958 17.8347H34.9703C35.3903 15.1182 35.492 14.5877 36.1506 14.6541C36.2556 14.0982 36.4508 13.6112 36.5964 13.3654C36.1046 13.2634 35.8299 13.5402 35.4704 14.0659C35.4987 13.8387 35.5507 13.6179 35.5404 13.3924H34.4619ZM24.7955 13.3924C24.6481 14.7674 24.387 16.1602 24.1829 17.5362L24.1294 17.8347H25.3044C25.724 15.1182 25.8254 14.5877 26.4836 14.6541C26.5891 14.0982 26.7844 13.6112 26.9295 13.3654C26.4382 13.2634 26.1633 13.5402 25.804 14.0659C25.8324 13.8387 25.8839 13.6179 25.874 13.3924H24.7955ZM40.135 17.4869C40.135 17.2941 40.2914 17.1389 40.4842 17.1389C40.6769 17.1387 40.8332 17.2941 40.8334 17.486V17.4869C40.8334 17.6789 40.6771 17.8346 40.4842 17.8347C40.2914 17.8346 40.1351 17.6789 40.135 17.4869ZM40.4842 17.7512C40.6308 17.7512 40.7495 17.633 40.7495 17.4871V17.487C40.7497 17.341 40.631 17.2226 40.4845 17.2225H40.4842C40.3375 17.2226 40.2186 17.3409 40.2186 17.487C40.2188 17.6329 40.3376 17.7512 40.4842 17.7512ZM40.437 17.639H40.3654V17.3339H40.4952C40.5221 17.3339 40.5499 17.3344 40.5733 17.3492C40.5984 17.3661 40.6127 17.3952 40.6127 17.4256C40.6127 17.4601 40.5923 17.4924 40.5592 17.5046L40.6159 17.6388H40.5364L40.4894 17.5183H40.437V17.6388V17.639ZM40.437 17.4662H40.4764C40.4912 17.4662 40.5073 17.4672 40.5203 17.4602C40.5321 17.4527 40.5381 17.4385 40.5381 17.4249C40.5376 17.4123 40.5312 17.4007 40.5208 17.3935C40.5085 17.3865 40.4882 17.3884 40.4748 17.3884H40.4369L40.437 17.4662Z" fill="white"/>
</g>
<defs>
<clipPath id="clip0_1985_11277">
<rect width="47" height="30" fill="white"/>
</clipPath>
</defs>
</svg>
