<svg width="34" height="38" viewBox="0 0 34 38" fill="none" xmlns="http://www.w3.org/2000/svg">
<path d="M11.1934 30.5044C12.1239 30.5044 13.0168 30.8747 13.6748 31.5327C14.3324 32.1906 14.702 33.083 14.7021 34.0132C14.702 34.9435 14.3326 35.8367 13.6748 36.4946C13.0168 37.1525 12.1238 37.522 11.1934 37.522C10.2629 37.522 9.36992 37.1525 8.71191 36.4946C8.05412 35.8367 7.68468 34.9435 7.68457 34.0132C7.68469 33.083 8.05429 32.1906 8.71191 31.5327C9.36994 30.8747 10.2628 30.5044 11.1934 30.5044ZM26.9824 30.5044C27.913 30.5044 28.8058 30.8747 29.4639 31.5327C30.1216 32.1906 30.4911 33.0829 30.4912 34.0132C30.4911 34.9436 30.1218 35.8367 29.4639 36.4946C28.8059 37.1525 27.9129 37.522 26.9824 37.522C26.0521 37.5219 25.1598 37.1524 24.502 36.4946C23.844 35.8367 23.4737 34.9436 23.4736 34.0132C23.4737 33.0829 23.8442 32.1906 24.502 31.5327C25.1599 30.8748 26.052 30.5045 26.9824 30.5044ZM11.1934 32.2593C10.7282 32.2593 10.2821 32.4441 9.95312 32.7729C9.62435 33.1018 9.43859 33.5481 9.43848 34.0132C9.43859 34.4783 9.62421 34.9255 9.95312 35.2544C10.2821 35.5831 10.7283 35.7681 11.1934 35.7681C11.6584 35.7681 12.1046 35.5831 12.4336 35.2544C12.7625 34.9255 12.9472 34.4783 12.9473 34.0132C12.9471 33.5481 12.7624 33.1018 12.4336 32.7729C12.1046 32.4441 11.6585 32.2593 11.1934 32.2593ZM26.9824 32.2593C26.5173 32.2594 26.0711 32.444 25.7422 32.7729C25.4134 33.1018 25.2286 33.5482 25.2285 34.0132C25.2286 34.4783 25.4133 34.9255 25.7422 35.2544C26.0711 35.5831 26.5174 35.7679 26.9824 35.7681C27.4476 35.7681 27.8946 35.5833 28.2236 35.2544C28.5525 34.9255 28.7372 34.4783 28.7373 34.0132C28.7372 33.5482 28.5524 33.1018 28.2236 32.7729C27.8946 32.4439 27.4477 32.2593 26.9824 32.2593ZM5.66699 7.69775H10.7305L12.6104 9.45166H6.4043L10.8779 19.978H25.2285C25.8073 19.978 26.316 19.6977 26.6318 19.2769L31.8955 12.2593C32.1234 11.9612 32.246 11.5923 32.2461 11.2065C32.2461 10.7415 32.0611 10.2953 31.7324 9.96631C31.4034 9.6373 30.9565 9.45166 30.4912 9.45166H26.0039L27.8838 7.69775H30.4912C31.4217 7.69775 32.3147 8.06721 32.9727 8.7251C33.6305 9.3831 34 10.2761 34 11.2065C33.9999 12.0835 33.7021 12.8211 33.2109 13.4175L28.1055 20.2417C27.4739 21.1362 26.4213 21.7329 25.2285 21.7329H10.9648L9.61426 24.4702L9.43848 25.2417C9.4386 25.7068 9.62422 26.153 9.95312 26.4819C10.2821 26.8108 10.7282 26.9956 11.1934 26.9956H30.4912V28.7505H11.1934C10.2629 28.7505 9.36992 28.381 8.71191 27.7231C8.054 27.0652 7.68469 26.1721 7.68457 25.2417C7.68405 24.6466 7.83498 24.0603 8.12305 23.5396L9.38672 20.9614L3.01758 5.94287H0.666992V4.18896H4.17578L5.66699 7.69775ZM22.9258 0.478027C25.2824 0.478113 27.2939 2.24468 27.2939 4.55908C27.2938 5.41489 27.0127 6.20549 26.5371 6.85303C26.3326 7.13304 25.7913 7.70563 25.1592 8.35205C24.5028 9.02331 23.691 9.83206 22.9023 10.6099C22.1133 11.3881 21.3444 12.1377 20.7734 12.6929C20.4879 12.9705 20.2519 13.2002 20.0869 13.3599C20.0045 13.4396 19.9395 13.5019 19.8955 13.5444C19.8736 13.5656 19.8571 13.5823 19.8457 13.5933C19.84 13.5988 19.8349 13.6032 19.832 13.606L19.8281 13.6099C19.5738 13.8553 19.1891 13.8859 18.9023 13.7017L18.7861 13.6099L18.7822 13.606C18.7793 13.6032 18.7742 13.5988 18.7686 13.5933C18.7572 13.5823 18.7407 13.5656 18.7188 13.5444C18.6747 13.5019 18.6098 13.4397 18.5273 13.3599C18.3624 13.2001 18.1264 12.9705 17.8408 12.6929C17.2698 12.1377 16.501 11.3881 15.7119 10.6099C14.9232 9.83204 14.1115 9.02332 13.4551 8.35205C12.823 7.7056 12.2817 7.13302 12.0771 6.85303L11.9082 6.60303C11.5359 6.00628 11.3204 5.30781 11.3203 4.55908C11.3203 2.24471 13.3319 0.478166 15.6885 0.478027C17.2067 0.478027 18.4519 1.23321 19.2744 2.23096L19.3066 2.27002C19.3173 2.25709 19.3288 2.24437 19.3398 2.23096L19.499 2.04736C20.3191 1.14213 21.5023 0.47803 22.9258 0.478027ZM22.9258 1.97803C21.9355 1.97803 21.0898 2.46598 20.4971 3.18506V3.18604C20.1915 3.55609 20.0383 3.74098 19.9619 3.8335C19.9239 3.87956 19.9051 3.90295 19.8955 3.91455C19.8909 3.92016 19.8879 3.92284 19.8867 3.92432L19.8857 3.92529V3.92627C19.6433 4.11458 19.3466 4.18896 19.3105 3.57959L19.3076 3.44873L19.3037 3.57959C19.2725 4.10776 19.0458 4.12184 18.8281 3.99365L18.7285 3.92627V3.92529L18.7275 3.92432C18.7263 3.92285 18.7241 3.91991 18.7197 3.91455C18.7102 3.90299 18.6905 3.87975 18.6523 3.8335C18.576 3.741 18.4235 3.55584 18.1182 3.18604L18.1172 3.18506C17.5245 2.46601 16.6787 1.97803 15.6885 1.97803C14.0409 1.97816 12.8203 3.18775 12.8203 4.55908C12.8204 5.01443 12.9499 5.44057 13.1807 5.81006L13.2861 5.96533L13.2881 5.96826L13.4395 6.15186C13.6486 6.39083 14.0258 6.79035 14.5273 7.30322C15.1743 7.96488 15.9793 8.76598 16.7656 9.5415C17.5514 10.3164 18.3173 11.064 18.8867 11.6177C19.0425 11.7692 19.1839 11.9059 19.3066 12.0249C19.4295 11.9058 19.5715 11.7694 19.7275 11.6177C20.297 11.0639 21.0638 10.3165 21.8496 9.5415C22.6359 8.76604 23.44 7.96483 24.0869 7.30322C24.7553 6.61969 25.2029 6.1375 25.3262 5.96826L25.3281 5.96533L25.4336 5.81006C25.6644 5.44056 25.7939 5.01445 25.7939 4.55908C25.7939 3.18773 24.5734 1.97811 22.9258 1.97803Z" fill="#015CAB"/>
</svg>
