<svg width="68" height="64" viewBox="0 0 68 64" fill="none" xmlns="http://www.w3.org/2000/svg">
<path d="M42.9608 23.5792C46.2147 23.5792 48.8556 26.22 48.8556 29.4739V40.4213H48.8421V41.2634C48.8421 41.9334 48.5759 42.576 48.1022 43.0498C47.6284 43.5236 46.9858 43.7897 46.3158 43.7897C45.6458 43.7897 45.0032 43.5236 44.5294 43.0498C44.0556 42.576 43.7895 41.9334 43.7895 41.2634V33.6845H43.8029V29.4739C43.8029 29.2506 43.7142 29.0364 43.5563 28.8785C43.3984 28.7205 43.1842 28.6318 42.9608 28.6318H24.4278C24.2044 28.6318 23.9903 28.7205 23.8323 28.8785C23.6744 29.0364 23.5857 29.2506 23.5857 29.4739V40.4213H23.5789V41.2634C23.5789 41.9334 23.3128 42.576 22.839 43.0498C22.3652 43.5236 21.7227 43.7897 21.0526 43.7897C20.3826 43.7897 19.74 43.5236 19.2663 43.0498C18.7925 42.576 18.5263 41.9334 18.5263 41.2634V33.6845H18.5331V29.4739C18.5331 26.22 21.1705 23.5792 24.4278 23.5792H42.9608ZM62.3158 29.4739V41.2634C62.3158 41.9334 62.582 42.576 63.0557 43.0498C63.5295 43.5236 64.1721 43.7897 64.8421 43.7897C65.5121 43.7897 66.1547 43.5236 66.6285 43.0498C67.1023 42.576 67.3684 41.9334 67.3684 41.2634V29.4739C67.3684 27.9105 66.7474 26.4112 65.6419 25.3057C64.5364 24.2002 63.0371 23.5792 61.4737 23.5792H50.1053C51.2606 24.9771 52.0152 26.7186 52.1869 28.6318H61.4737C61.697 28.6318 61.9112 28.7205 62.0691 28.8785C62.2271 29.0364 62.3158 29.2506 62.3158 29.4739ZM0 41.2634C1.41196e-08 41.9334 0.266164 42.576 0.73994 43.0498C1.21372 43.5236 1.8563 43.7897 2.52632 43.7897C3.19634 43.7897 3.83892 43.5236 4.31269 43.0498C4.78647 42.576 5.05263 41.9334 5.05263 41.2634V29.4739C5.05263 29.2506 5.14135 29.0364 5.29928 28.8785C5.4572 28.7205 5.6714 28.6318 5.89474 28.6318H15.2017C15.3696 26.7761 16.0954 25.0147 17.2834 23.5792H5.89474C4.33136 23.5792 2.83201 24.2002 1.72653 25.3057C0.621051 26.4112 0 27.9105 0 29.4739V41.2634ZM33.6842 0.000244141C36.3643 0.000244141 38.9346 1.0649 40.8297 2.96001C42.7248 4.85511 43.7895 7.42543 43.7895 10.1055C43.7895 12.7856 42.7248 15.3559 40.8297 17.251C38.9346 19.1461 36.3643 20.2108 33.6842 20.2108C31.0041 20.2108 28.4338 19.1461 26.5387 17.251C24.6436 15.3559 23.5789 12.7856 23.5789 10.1055C23.5789 7.42543 24.6436 4.85511 26.5387 2.96001C28.4338 1.0649 31.0041 0.000244141 33.6842 0.000244141ZM33.6842 5.05288C32.3442 5.05288 31.059 5.5852 30.1115 6.53276C29.1639 7.48031 28.6316 8.76547 28.6316 10.1055C28.6316 11.4455 29.1639 12.7307 30.1115 13.6783C31.059 14.6258 32.3442 15.1581 33.6842 15.1581C35.0243 15.1581 36.3094 14.6258 37.257 13.6783C38.2045 12.7307 38.7368 11.4455 38.7368 10.1055C38.7368 8.76547 38.2045 7.48031 37.257 6.53276C36.3094 5.5852 35.0243 5.05288 33.6842 5.05288ZM55.5789 3.36867C57.8124 3.36867 59.9543 4.25588 61.5335 5.83513C63.1128 7.41439 64 9.55632 64 11.7897C64 14.0231 63.1128 16.165 61.5335 17.7443C59.9543 19.3236 57.8124 20.2108 55.5789 20.2108C53.3455 20.2108 51.2036 19.3236 49.6244 17.7443C48.0451 16.165 47.1579 14.0231 47.1579 11.7897C47.1579 9.55632 48.0451 7.41439 49.6244 5.83513C51.2036 4.25588 53.3455 3.36867 55.5789 3.36867ZM55.5789 8.4213C54.6856 8.4213 53.8288 8.77618 53.1971 9.40789C52.5654 10.0396 52.2105 10.8964 52.2105 11.7897C52.2105 12.6831 52.5654 13.5398 53.1971 14.1716C53.8288 14.8033 54.6856 15.1581 55.5789 15.1581C56.4723 15.1581 57.3291 14.8033 57.9608 14.1716C58.5925 13.5398 58.9474 12.6831 58.9474 11.7897C58.9474 10.8964 58.5925 10.0396 57.9608 9.40789C57.3291 8.77618 56.4723 8.4213 55.5789 8.4213ZM11.7895 3.36867C14.0229 3.36867 16.1648 4.25588 17.7441 5.83513C19.3233 7.41439 20.2105 9.55632 20.2105 11.7897C20.2105 14.0231 19.3233 16.165 17.7441 17.7443C16.1648 19.3236 14.0229 20.2108 11.7895 20.2108C9.55607 20.2108 7.41414 19.3236 5.83489 17.7443C4.25564 16.165 3.36842 14.0231 3.36842 11.7897C3.36842 9.55632 4.25564 7.41439 5.83489 5.83513C7.41414 4.25588 9.55607 3.36867 11.7895 3.36867ZM11.7895 8.4213C10.8961 8.4213 10.0393 8.77618 9.40764 9.40789C8.77594 10.0396 8.42105 10.8964 8.42105 11.7897C8.42105 12.6831 8.77594 13.5398 9.40764 14.1716C10.0393 14.8033 10.8961 15.1581 11.7895 15.1581C12.6828 15.1581 13.5396 14.8033 14.1713 14.1716C14.803 13.5398 15.1579 12.6831 15.1579 11.7897C15.1579 10.8964 14.803 10.0396 14.1713 9.40789C13.5396 8.77618 12.6828 8.4213 11.7895 8.4213ZM2.52632 47.1581C1.8563 47.1581 1.21372 47.4243 0.73994 47.8981C0.266164 48.3719 0 49.0144 0 49.6845V51.3687C0 54.7188 1.33082 57.9317 3.6997 60.3005C6.06858 62.6694 9.28148 64.0002 12.6316 64.0002H54.7368C58.0869 64.0002 61.2998 62.6694 63.6687 60.3005C66.0376 57.9317 67.3684 54.7188 67.3684 51.3687V49.6845C67.3684 49.0144 67.1023 48.3719 66.6285 47.8981C66.1547 47.4243 65.5121 47.1581 64.8421 47.1581H2.52632ZM12.6316 58.9476C10.7674 58.9476 8.96857 58.2604 7.57909 57.0176C6.18961 55.7748 5.30692 54.0634 5.09979 52.2108H62.2686C62.0615 54.0634 61.1788 55.7748 59.7893 57.0176C58.3999 58.2604 56.6011 58.9476 54.7368 58.9476H12.6316Z" fill="#FBAE42"/>
</svg>
