<svg xmlns="http://www.w3.org/2000/svg" width="26" height="29" viewBox="0 0 26 29" fill="none">
  <path fill-rule="evenodd" clip-rule="evenodd" d="M11.75 0.25C9.87386 0.25 8.25 1.6591 8.25 3.53125C8.25 4.22147 8.47654 4.85889 8.85903 5.38019C9.02359 5.60584 9.44694 6.0523 9.92384 6.54001C10.4238 7.05133 11.0415 7.66655 11.6412 8.25797C12.2414 8.8499 12.8258 9.42022 13.26 9.8424C13.4771 10.0535 13.6568 10.2277 13.7822 10.3492L13.9277 10.4899L13.9659 10.5269L13.9758 10.5364L13.9783 10.5388L13.979 10.5395L13.9791 10.5396L14.5 10L13.9792 10.5397C14.2698 10.8201 14.7302 10.8201 15.0208 10.5397L14.5 10L15.0209 10.5396L15.021 10.5395L15.0217 10.5388L15.0242 10.5364L15.0341 10.5269L15.0723 10.4899L15.2178 10.3492C15.3432 10.2277 15.5229 10.0535 15.74 9.8424C16.1742 9.42022 16.7586 8.8499 17.3588 8.25797C17.9585 7.66655 18.5762 7.05133 19.0762 6.54001C19.553 6.05235 19.9763 5.60593 20.1409 5.38025C20.5234 4.85894 20.75 4.2215 20.75 3.53125C20.75 1.6591 19.1261 0.25 17.25 0.25C16.1017 0.25 15.1518 0.789303 14.5 1.51513C13.8482 0.789303 12.8983 0.25 11.75 0.25ZM14.6943 8.76699L14.5 8.95583L14.3057 8.76699C13.873 8.34631 13.2913 7.77862 12.6945 7.18999C12.0971 6.60087 11.4869 5.99301 10.9963 5.4913C10.4837 4.96711 10.1547 4.61153 10.071 4.49637L10.071 4.49637L10.0689 4.49353C9.86531 4.21631 9.75 3.88671 9.75 3.53125C9.75 2.60215 10.5828 1.75 11.75 1.75C12.4393 1.75 13.0339 2.0889 13.4568 2.60201L13.4572 2.60252L13.8636 3.09471L13.9144 3.15623L13.9208 3.16392L13.9216 3.16489L13.9217 3.16501L13.9217 3.16503L13.9217 3.16504L13.9217 3.16507L13.9217 3.16511C14.1804 3.36599 14.5 3.4375 14.5 2.6875C14.5 3.4375 14.8196 3.36599 15.0783 3.16511L15.0783 3.16507L15.0783 3.16504L15.0783 3.16503L15.0783 3.16501L15.0784 3.16489L15.0792 3.16392L15.0856 3.15623L15.1364 3.09471L15.5428 2.60252L15.5432 2.60201C15.9661 2.0889 16.5607 1.75 17.25 1.75C18.4172 1.75 19.25 2.60215 19.25 3.53125C19.25 3.88671 19.1347 4.21631 18.9311 4.49353L18.929 4.49637C18.8452 4.61153 18.5163 4.96711 18.0037 5.4913C17.5131 5.99301 16.9029 6.60087 16.3055 7.18999C15.7087 7.77862 15.127 8.34631 14.6943 8.76699ZM20.3334 23.25C21.0406 23.25 21.7189 23.531 22.219 24.031C22.7191 24.5311 23 25.2094 23 25.9167C23 26.6239 22.7191 27.3022 22.219 27.8023C21.7189 28.3024 21.0406 28.5833 20.3334 28.5833C19.6261 28.5833 18.9479 28.3024 18.4478 27.8023C17.9477 27.3022 17.6667 26.6239 17.6667 25.9167C17.6667 25.2094 17.9477 24.5311 18.4478 24.031C18.9479 23.531 19.6261 23.25 20.3334 23.25ZM20.3334 24.5833C19.9798 24.5833 19.6406 24.7238 19.3906 24.9739C19.1405 25.2239 19 25.563 19 25.9167C19 26.2703 19.1405 26.6094 19.3906 26.8595C19.6406 27.1095 19.9798 27.25 20.3334 27.25C20.687 27.25 21.0261 27.1095 21.2762 26.8595C21.5262 26.6094 21.6667 26.2703 21.6667 25.9167C21.6667 25.563 21.5262 25.2239 21.2762 24.9739C21.0261 24.7238 20.687 24.5833 20.3334 24.5833ZM8.33337 23.25C9.04062 23.25 9.71889 23.531 10.219 24.031C10.7191 24.5311 11 25.2094 11 25.9167C11 26.6239 10.7191 27.3022 10.219 27.8023C9.71889 28.3024 9.04062 28.5833 8.33337 28.5833C7.62613 28.5833 6.94785 28.3024 6.44776 27.8023C5.94766 27.3022 5.66671 26.6239 5.66671 25.9167C5.66671 25.2094 5.94766 24.5311 6.44776 24.031C6.94785 23.531 7.62613 23.25 8.33337 23.25ZM8.33337 24.5833C7.97975 24.5833 7.64061 24.7238 7.39057 24.9739C7.14052 25.2239 7.00004 25.563 7.00004 25.9167C7.00004 26.2703 7.14052 26.6094 7.39057 26.8595C7.64061 27.1095 7.97975 27.25 8.33337 27.25C8.687 27.25 9.02613 27.1095 9.27618 26.8595C9.52623 26.6094 9.66671 26.2703 9.66671 25.9167C9.66671 25.563 9.52623 25.2239 9.27618 24.9739C9.02613 24.7238 8.687 24.5833 8.33337 24.5833ZM23 7.25H19.5893L21.0179 5.91667H23C23.7073 5.91667 24.3856 6.19762 24.8857 6.69772C25.3858 7.19781 25.6667 7.87609 25.6667 8.58333C25.6667 9.25 25.44 9.81 25.0667 10.2633L21.1867 15.45C20.7067 16.13 19.9067 16.5833 19 16.5833H8.16004L7.13337 18.6633L7.00004 19.25C7.00004 19.6036 7.14052 19.9428 7.39057 20.1928C7.64061 20.4429 7.97975 20.5833 8.33337 20.5833H23V21.9167H8.33337C7.62613 21.9167 6.94785 21.6357 6.44776 21.1356C5.94766 20.6355 5.66671 19.9572 5.66671 19.25C5.66631 18.7976 5.78102 18.3525 6.00004 17.9567L6.96004 15.9967L2.12004 4.58333H0.333374V3.25H3.00004L4.13337 5.91667H7.98214L9.41071 7.25H4.69337L8.09337 15.25H19C19.44 15.25 19.8267 15.0367 20.0667 14.7167L24.0667 9.38333C24.24 9.15667 24.3334 8.87667 24.3334 8.58333C24.3334 8.22971 24.1929 7.89057 23.9429 7.64052C23.6928 7.39048 23.3537 7.25 23 7.25Z" fill="white"/>
</svg>