<svg width="331" height="363" viewBox="0 0 331 363" fill="none" xmlns="http://www.w3.org/2000/svg">
<g clip-path="url(#clip0_91_825)">
<path d="M292.18 249.868C292.352 249.336 292.467 248.759 292.716 248.273C293.869 245.999 294.875 243.654 295.573 241.147C296.865 236.54 296.781 231.878 295.459 227.121C294.05 222.053 291.659 217.573 288.475 213.516C288.287 213.281 288.101 213.055 287.908 212.831C287.835 212.738 287.729 212.682 287.579 212.542C287.01 212.886 286.992 213.602 286.805 214.175C285.311 218.872 283.845 223.579 282.372 228.287C282.178 228.897 281.967 229.504 281.746 230.168C281.211 230.333 280.704 230.561 280.171 230.647C276.705 231.187 273.502 232.489 270.371 234.027C267.548 235.407 264.681 236.676 261.832 238.002C259.082 239.28 256.344 240.562 253.6 241.856C250.864 243.147 248.123 244.448 245.389 245.748C242.499 247.113 239.621 248.492 236.726 249.841C233.933 251.15 231.13 252.426 228.335 253.726C225.54 255.026 222.765 256.365 219.975 257.682C217.332 258.926 214.691 260.152 212.05 261.405C210.105 262.326 208.174 263.262 206.241 264.189C203.974 265.272 201.603 265.935 199.049 265.776C195.074 265.533 191.848 263.576 189.324 260.131C187.541 257.7 186.205 254.989 184.865 252.27C183.898 250.323 182.961 248.358 182 246.401C181.9 246.192 181.754 246.007 181.634 245.822C180.294 246.37 173.282 252.127 169.243 256.237C165.442 260.113 161.793 264.163 158.042 268.174C157.46 267.813 157.475 267.231 157.349 266.737C156.238 262.261 155.103 257.791 154.028 253.313C153.614 251.603 152.807 250.202 151.664 248.922C139.322 235.023 127.008 221.098 114.68 207.186C113.299 205.625 111.916 204.056 110.544 202.492C109.226 200.991 107.641 200.203 105.77 199.984C101.561 199.502 97.3466 198.943 93.1387 198.435C92.2716 198.331 91.3794 198.118 90.3289 198.426C91.5485 199.611 92.8652 200.277 94.0737 201.111C95.3721 202.005 96.6926 202.856 98.0025 203.729C99.2644 204.564 100.529 205.406 101.783 206.243C103.092 207.116 104.408 207.978 105.717 208.851C106.971 209.688 108.219 210.536 109.555 211.436C109.415 211.843 109.351 212.183 109.2 212.469C105.733 218.914 102.257 225.361 98.7785 231.8C98.6723 232.001 98.5079 232.159 98.2949 232.447C95.0145 230.63 91.8715 228.541 88.6694 226.576C85.4592 224.613 82.2632 222.611 78.9132 220.541C75.01 226.899 71.2808 233.273 67.3945 239.599C67.0063 239.435 66.6667 239.371 66.3945 239.181C60.2213 234.993 54.0431 230.789 47.8812 226.58C47.7437 226.48 47.6287 226.338 47.4182 226.146C47.5051 225.853 47.5557 225.5 47.7093 225.222C51.3402 218.673 54.9761 212.141 58.6201 205.606C58.7514 205.37 58.9463 205.168 59.2115 204.82C65.5512 209 71.8541 213.148 78.2837 217.389C81.8077 210.812 85.2617 204.38 88.741 197.887C88.1445 197.309 87.455 197.292 86.8317 197.085C83.2265 195.884 79.5722 194.84 76.0136 193.474C70.3815 191.321 65.1365 188.266 60.4387 184.109C55.4961 179.736 51.5434 174.515 48.9259 168.241C46.6376 162.744 45.5331 156.995 45.417 151.083C45.25 142.568 46.5945 134.402 49.0473 126.487C52.1208 116.56 56.8989 107.721 62.8282 99.6441C65.0766 96.5776 67.528 93.6791 69.8869 90.7115C70.2317 90.2763 70.5873 89.8467 70.9902 89.3402C70.3273 88.8353 69.8358 89.2271 69.3738 89.3702C65.2105 90.6414 61.0523 91.9288 56.9146 93.2542C53.0665 94.4811 49.1303 94.6788 45.1014 93.831C44.1718 93.6395 43.2395 93.3244 42.3709 92.9009C40.8813 92.1636 40.0932 90.8806 40.2258 89.0995C40.2801 88.3281 40.388 87.5579 40.5758 86.8161C42.0934 80.8155 43.638 74.8153 45.1742 68.8178C45.3528 68.1322 45.5419 67.4522 45.731 66.7722C46.1944 65.084 47.1938 63.9223 48.6844 63.2566C52.4463 61.5504 56.2085 59.844 59.968 58.1297C65.5385 55.5794 71.2761 53.4834 77.0447 51.4577C79.2812 50.6765 81.5601 50.0331 83.8192 49.3248C84.4513 49.1291 85.0842 48.9065 85.9115 49.3695C84.43 56.1757 81.9916 62.5591 78.8989 68.9232C79.8498 69.0105 80.5746 68.8838 81.2866 68.7166C87.3506 67.3008 93.3941 65.8203 99.3086 63.8649C104.329 62.2042 109.3 60.4164 114.297 58.6829C118.043 57.3812 121.785 56.0715 125.531 54.7699C125.877 54.6539 126.261 54.6326 126.8 54.5368C126.756 55.0563 126.777 55.4672 126.673 55.819C125.078 61.1689 123.443 66.5045 121.878 71.863C121.44 73.3747 120.462 74.1746 119.205 74.7058C115.556 76.2617 111.89 77.7608 108.254 79.3303C104.31 81.022 100.352 82.6999 96.462 84.5081C93.9379 85.6799 91.8913 87.6188 89.9311 89.6372C89.6757 89.9029 89.5593 90.3292 89.4026 90.6263C89.5778 91.8241 90.335 92.5482 90.9512 93.3342C94.7143 98.1437 98.4943 102.922 102.271 107.718C116.114 125.289 129.919 142.907 143.833 160.421C148.478 166.271 153.415 171.863 158.219 177.567C159.219 178.757 160.229 179.927 161.242 181.105C161.462 181.356 161.718 181.579 162.044 181.744C161.888 180.896 161.34 180.302 160.863 179.678C158.006 175.99 155.126 172.31 152.256 168.635C150.899 166.889 149.533 165.146 148.181 163.39C147.674 162.73 147.214 162.02 146.769 161.385C147.264 159.598 152.916 148.589 153.883 147.553C155.342 148.992 156.813 150.445 158.276 151.901C159.75 153.362 161.222 154.816 162.798 156.378C163.099 155.974 163.383 155.655 163.595 155.279C165.171 152.537 166.725 149.782 168.301 147.04C168.577 146.555 168.896 146.092 169.268 145.515C171.248 146.802 172.964 148.33 175.103 149.843C174.876 149.256 174.786 148.965 174.652 148.704C173.567 146.546 172.508 144.361 171.363 142.239C170.119 139.943 169.901 137.746 170.894 135.362C173.82 128.286 177.325 121.617 181.586 115.441C182.648 113.905 183.907 113.24 185.763 113.296C195.461 113.604 205.079 114.746 214.563 117.607C223.978 120.445 232.842 124.714 240.868 131.071C243.4 133.084 245.77 135.315 247.911 137.812C249.44 139.594 250.675 141.573 251.452 143.854C252.532 147.026 252.592 150.177 251.656 153.237C251.143 154.905 250.471 156.551 249.636 158.043C245.857 164.718 240.71 169.925 234.466 173.802C233.006 174.707 231.192 175.162 229.469 175.42C216.393 177.426 203.307 176.329 190.231 172.973C185.919 171.867 181.635 170.539 177.343 169.329C176.718 169.149 176.081 168.725 175.324 169.235C176.329 171.249 178.435 172.568 178.726 175.115C178.661 175.366 178.6 175.713 178.491 176.049C176.47 181.974 173.743 187.426 169.86 192.1C168.998 193.13 168.415 194.287 168.306 195.715C167.651 204.387 164.263 211.632 159.274 218.042C158.804 218.649 158.422 219.362 157.52 219.837C157.562 219.255 157.555 218.858 157.627 218.489C158.376 214.884 158.297 211.242 157.405 207.586C156.604 204.282 155.111 201.353 153.013 198.736C145.874 189.823 138.749 180.896 131.618 171.98C113.536 149.382 95.4487 126.796 77.369 104.206C76.8493 103.559 76.296 102.95 75.7074 102.253C75.3215 102.47 74.9668 102.615 74.6803 102.837C72.8759 104.239 71.2519 105.852 69.7925 107.679C63.0503 116.141 58.1221 125.701 55.7237 136.804C54.5545 142.209 53.9387 147.708 54.463 153.361C55.4107 163.623 59.8157 171.998 67.3401 178.6C73.5058 183.997 80.4631 187.675 87.892 190.267C91.7144 191.596 95.6107 192.476 99.5488 193.059C100.097 193.138 100.657 193.168 101.209 193.202C101.362 193.208 101.511 193.144 101.838 193.078C101.52 192.626 101.298 192.224 101.012 191.904C97.7744 188.246 94.5228 184.601 91.2794 180.953C90.5695 180.152 89.865 179.34 89.1551 178.539C88.1777 177.448 87.9668 176.279 88.4052 174.883C89.909 170.129 91.3521 165.35 92.8135 160.574C93.1773 159.396 93.5409 158.219 93.9232 157.043C94.0038 156.788 94.1726 156.558 94.3935 156.152C94.8895 156.665 95.3052 157.06 95.6768 157.486C101.809 164.554 107.944 171.63 114.07 178.709C118.448 183.754 122.829 188.781 127.188 193.85C128.405 195.257 129.805 195.934 131.535 195.869C134.626 195.755 137.727 195.701 140.823 195.63C141.406 195.618 141.993 195.649 142.583 195.662C142.621 195.784 142.639 195.902 142.677 196.023C142.324 196.204 141.989 196.441 141.616 196.556C139.044 197.37 136.461 198.152 133.888 198.967C133.378 199.125 132.882 199.331 132.249 199.554C132.591 200.025 132.806 200.376 133.068 200.677C143.362 212.581 153.665 224.484 163.967 236.386C164.672 237.198 165.364 238.058 166.796 237.863C173.327 232.618 180.01 227.176 186.835 221.938C187.487 222.552 187.4 223.245 187.472 223.88C188.03 228.981 188.501 234.09 189.164 239.185C189.507 241.813 190.17 244.414 190.712 247.024C190.806 247.501 190.973 247.955 191.143 248.418C191.986 250.625 193.229 251.456 195.374 251.183C202.461 250.258 209.082 248.004 215.145 244.147C218.128 242.247 221.098 240.307 224.063 238.377C224.373 238.174 224.634 237.871 225.108 237.449C224.614 237.318 224.328 237.14 224.088 237.197C220.647 237.961 217.221 238.773 213.78 239.536C210.075 240.364 206.351 241.135 202.644 241.954C200.548 242.416 198.46 242.93 196.369 243.408C195.798 243.541 195.216 243.641 194.431 243.804C194.507 243.186 194.499 242.789 194.603 242.437C196.005 237.955 197.446 233.487 198.837 228.999C199.18 227.899 199.807 227.226 200.847 226.912C202.954 226.287 205.04 225.623 207.147 224.97C207.18 224.215 206.646 223.954 206.308 223.606C200.772 217.978 195.225 212.371 189.676 206.756C185.551 202.583 181.422 198.401 177.275 194.243C176.489 193.456 175.861 192.63 175.844 191.428C176.435 189.549 183.994 175.233 185.13 173.94C185.569 174.381 186.024 174.818 186.462 175.286C198.675 188.283 210.889 201.28 223.095 214.28C224.355 215.621 225.622 216.96 226.848 218.338C227.977 219.605 229.228 220.087 230.796 219.7C233.624 218.993 236.484 218.391 239.335 217.757C243.151 216.913 246.969 216.077 250.785 215.233C252.505 214.852 254.226 214.47 255.944 214.08C261.257 212.852 266.564 211.6 271.882 210.415C275.153 209.677 278.457 209.045 281.741 208.348C282.041 208.282 282.315 208.135 282.859 207.913C282.35 207.618 282.092 207.414 281.809 207.306C278.829 206.115 275.767 205.404 272.663 204.846C261.445 202.842 250.177 201.909 238.906 201.28C230.301 200.801 221.705 200.436 213.099 200.01C212.504 199.982 211.915 199.889 211.161 199.803C212.529 193.005 213.853 186.407 215.25 179.76C217.611 179.784 219.822 179.836 222.031 179.827C229.412 179.797 236.79 180.646 244.163 181.479C252.141 182.374 260.132 183.309 268.095 184.528C275.925 185.717 283.364 188.572 290.327 192.986C293.498 194.996 296.385 197.378 298.687 200.536C301.236 204.035 302.636 208.013 303.034 212.311C303.496 217.361 303.677 222.419 303.23 227.431C302.972 230.299 302.441 233.091 301.629 235.802C299.95 241.426 296.813 245.895 292.738 249.633C292.585 249.77 292.345 249.8 292.148 249.878L292.203 249.914L292.18 249.868ZM234.395 160.862C235.498 160.521 236.621 160.218 237.711 159.836C244.148 157.559 245.761 148.253 240.248 143.47C237.226 140.855 234.019 138.731 230.479 137.137C218.983 131.97 207.072 129.132 194.92 127.692C191.397 127.274 187.952 127.568 184.627 128.793C180.945 130.155 179.42 133.405 180.608 137.53C181.786 141.622 183.769 145.269 186.287 148.582C190.942 154.696 196.748 159.219 203.123 162.883C205.154 164.047 207.347 164.647 209.613 164.593C218.052 164.395 226.352 163.344 234.395 160.862ZM55.65 74.3367C61.8451 74.6648 67.6696 73.6516 72.6976 69.7512C66.3857 68.9888 60.7483 70.6631 55.65 74.3367Z" fill="white" fill-opacity="0.3"/>
<path d="M125.445 235.067C125.458 236.315 126.047 237.011 126.623 237.694C128.518 240.002 130.436 242.293 132.338 244.59C133.826 246.384 135.221 248.251 136.318 250.362C139.031 255.621 140.15 261.187 139.76 267.016C139.255 274.479 136.832 280.999 132.218 286.379C130.136 288.808 127.589 290.537 124.784 291.92C120.856 293.864 116.628 294.525 112.328 294.925C105.498 295.557 98.6283 295.633 91.7456 294.461C88.6039 293.925 85.4716 293.19 82.3718 292.33C78.6316 291.295 75.1949 289.376 71.9473 287.034C69.7146 285.418 68.2239 283.242 67.6169 280.421C67.2361 278.674 67.2951 276.943 67.6112 275.238C68.3572 271.278 69.8836 267.716 71.9514 264.44C74.6838 260.096 78.1041 256.453 81.7923 253.074C87.0031 248.301 92.7541 244.354 98.6608 240.652C99.828 239.918 101.004 239.181 102.171 238.447C103.515 237.596 104.531 236.429 105.142 234.846C106.452 231.475 107.794 228.121 109.126 224.761C109.361 224.173 109.608 223.591 109.837 223.041C110.874 222.72 111.642 223.219 112.394 223.811C114.644 225.6 116.903 227.387 119.167 229.163C119.674 229.565 120.178 229.96 120.704 230.339C122.178 231.4 123.686 231.652 125.307 230.946C126.404 230.474 127.593 230.212 129.011 229.773C128.775 230.299 128.685 230.611 128.513 230.832C127.826 231.738 127.087 232.597 126.41 233.508C126.018 234.047 125.699 234.651 125.445 235.067ZM102.358 246.512C98.5613 247.847 94.9202 249.542 91.4099 251.517C86.4325 254.319 81.8815 257.752 77.9158 262.042C75.0219 265.176 72.6295 268.695 71.2807 272.975C70.9492 274.027 70.7182 275.146 70.6109 276.262C70.3379 279.197 71.5349 281.427 73.873 283.012C74.4019 283.372 74.967 283.676 75.5387 283.916C77.9216 284.928 80.3618 285.637 82.8861 285.814C95.5737 286.742 107.985 285.43 120.16 282.379C120.581 282.275 121.006 282.126 121.402 281.941C123.438 280.974 125.49 280.028 127.491 278.973C129.24 278.05 131.012 277.119 132.624 275.955C136.56 273.12 136.826 269.558 133.499 265.528C132.662 264.517 131.737 263.596 130.807 262.686C124.277 256.283 116.935 251.276 109.109 247.085C105.413 245.104 106.04 245.176 102.356 246.504" fill="white" fill-opacity="0.3"/>
<path d="M173.49 261.198C180.151 265.039 186.852 268.895 193.609 272.787C193.227 274.423 192.339 275.63 191.72 276.985C191.066 278.403 190.328 279.777 189.624 281.176C188.948 282.521 188.269 283.859 187.602 285.202C186.903 286.59 186.199 287.989 185.503 289.385C184.833 290.72 184.154 292.058 183.518 293.329C183.824 294.175 184.466 294.385 184.974 294.734C190.014 298.216 195.07 301.666 200.116 305.138C200.634 305.492 201.141 305.868 201.63 306.213C201.245 307.638 191.911 326.206 190.585 328.205C190.263 328.056 189.89 327.941 189.575 327.728C183.447 323.571 177.333 319.4 171.216 315.222C170.888 314.995 170.602 314.701 170.215 314.369C170.61 313.607 170.95 312.871 171.341 312.182C174.023 307.419 176.721 302.678 179.395 297.917C179.956 296.917 180.632 295.971 180.557 294.61C180.122 293.493 179.169 292.909 178.264 292.283C174.663 289.803 171.042 287.346 167.435 284.876C165.89 283.819 164.356 282.767 162.826 281.696C162.453 281.438 162.108 281.128 161.765 280.852C162.38 279.25 172.473 262.303 173.492 261.206" fill="white" fill-opacity="0.3"/>
<path d="M132.102 131.535C135.867 124.616 139.601 117.77 143.31 110.957C144.696 111.531 162.184 123.029 163.836 124.435C163.077 126.259 161.997 127.934 161.068 129.695C160.125 131.47 159.142 133.23 158.18 135.002C157.247 136.72 156.303 138.433 155.369 140.151C154.405 141.915 153.446 143.667 152.504 145.388C151.189 144.899 134.199 133.371 132.107 131.551" fill="white" fill-opacity="0.3"/>
</g>
<defs>
<clipPath id="clip0_91_825">
<rect width="251.941" height="301.119" fill="white" transform="translate(0.642471 75.0637) rotate(-17.2027)"/>
</clipPath>
</defs>
</svg>
