<svg width="26" height="29" viewBox="0 0 26 29" fill="none" xmlns="http://www.w3.org/2000/svg">
<g id="mdi-light:cart">
<path id="Union" fill-rule="evenodd" clip-rule="evenodd" d="M11.4166 0C9.54048 0 7.91663 1.4091 7.91663 3.28125C7.91663 3.97147 8.14317 4.60889 8.52565 5.13019C8.69022 5.35584 9.11357 5.8023 9.59046 6.29001C10.0904 6.80133 10.7082 7.41655 11.3078 8.00797C11.908 8.5999 12.4924 9.17022 12.9266 9.5924C13.1437 9.80354 13.3234 9.97775 13.4489 10.0992L13.5943 10.2399L13.6326 10.2769L13.6424 10.2864L13.6449 10.2888L13.6456 10.2895L13.6457 10.2896L14.1666 9.75L13.6458 10.2897C13.9364 10.5701 14.3969 10.5701 14.6874 10.2897L14.1666 9.75L14.6875 10.2896L14.6877 10.2895L14.6883 10.2888L14.6908 10.2864L14.7007 10.2769L14.739 10.2399L14.8844 10.0992C15.0098 9.97775 15.1895 9.80354 15.4067 9.5924C15.8409 9.17022 16.4252 8.5999 17.0254 8.00797C17.6251 7.41655 18.2428 6.80133 18.7428 6.29001C19.2196 5.80235 19.6429 5.35593 19.8075 5.13025C20.1901 4.60894 20.4166 3.9715 20.4166 3.28125C20.4166 1.4091 18.7928 0 16.9166 0C15.7683 0 14.8185 0.539303 14.1666 1.26513C13.5148 0.539303 12.565 0 11.4166 0ZM14.361 8.51699L14.1666 8.70583L13.9723 8.51699C13.5396 8.09631 12.958 7.52862 12.3611 6.93999C11.7638 6.35087 11.1535 5.74301 10.6629 5.2413C10.1504 4.71711 9.82138 4.36153 9.73762 4.24637L9.73763 4.24637L9.73554 4.24353C9.53193 3.96631 9.41663 3.63671 9.41663 3.28125C9.41663 2.35215 10.2494 1.5 11.4166 1.5C12.1059 1.5 12.7005 1.8389 13.1234 2.35201L13.1238 2.35252L13.5302 2.84471L13.581 2.90623L13.5874 2.91392L13.5882 2.91489L13.5883 2.91501L13.5883 2.91503L13.5883 2.91504L13.5883 2.91507L13.5884 2.91511C13.847 3.11599 14.1666 3.1875 14.1666 2.4375C14.1666 3.1875 14.4862 3.11599 14.7449 2.91511L14.7449 2.91507L14.7449 2.91504L14.745 2.91503L14.745 2.91501L14.7451 2.91489L14.7459 2.91392L14.7522 2.90623L14.803 2.84471L15.2094 2.35252L15.2098 2.35201C15.6327 1.8389 16.2273 1.5 16.9166 1.5C18.0838 1.5 18.9166 2.35215 18.9166 3.28125C18.9166 3.63671 18.8013 3.96631 18.5977 4.24353L18.5956 4.24637C18.5119 4.36153 18.1829 4.71711 17.6703 5.2413C17.1797 5.74301 16.5695 6.35087 15.9721 6.93999C15.3753 7.52862 14.7936 8.09631 14.361 8.51699ZM20 23C20.7072 23 21.3855 23.281 21.8856 23.781C22.3857 24.2811 22.6667 24.9594 22.6667 25.6667C22.6667 26.3739 22.3857 27.0522 21.8856 27.5523C21.3855 28.0524 20.7072 28.3333 20 28.3333C19.2928 28.3333 18.6145 28.0524 18.1144 27.5523C17.6143 27.0522 17.3333 26.3739 17.3333 25.6667C17.3333 24.9594 17.6143 24.2811 18.1144 23.781C18.6145 23.281 19.2928 23 20 23ZM20 24.3333C19.6464 24.3333 19.3072 24.4738 19.0572 24.7239C18.8071 24.9739 18.6667 25.313 18.6667 25.6667C18.6667 26.0203 18.8071 26.3594 19.0572 26.6095C19.3072 26.8595 19.6464 27 20 27C20.3536 27 20.6928 26.8595 20.9428 26.6095C21.1929 26.3594 21.3333 26.0203 21.3333 25.6667C21.3333 25.313 21.1929 24.9739 20.9428 24.7239C20.6928 24.4738 20.3536 24.3333 20 24.3333ZM8 23C8.70724 23 9.38552 23.281 9.88562 23.781C10.3857 24.2811 10.6667 24.9594 10.6667 25.6667C10.6667 26.3739 10.3857 27.0522 9.88562 27.5523C9.38552 28.0524 8.70724 28.3333 8 28.3333C7.29276 28.3333 6.61448 28.0524 6.11438 27.5523C5.61428 27.0522 5.33333 26.3739 5.33333 25.6667C5.33333 24.9594 5.61428 24.2811 6.11438 23.781C6.61448 23.281 7.29276 23 8 23ZM8 24.3333C7.64638 24.3333 7.30724 24.4738 7.05719 24.7239C6.80714 24.9739 6.66667 25.313 6.66667 25.6667C6.66667 26.0203 6.80714 26.3594 7.05719 26.6095C7.30724 26.8595 7.64638 27 8 27C8.35362 27 8.69276 26.8595 8.94281 26.6095C9.19286 26.3594 9.33333 26.0203 9.33333 25.6667C9.33333 25.313 9.19286 24.9739 8.94281 24.7239C8.69276 24.4738 8.35362 24.3333 8 24.3333ZM22.6667 7H19.2559L20.6845 5.66667H22.6667C23.3739 5.66667 24.0522 5.94762 24.5523 6.44772C25.0524 6.94781 25.3333 7.62609 25.3333 8.33333C25.3333 9 25.1067 9.56 24.7333 10.0133L20.8533 15.2C20.3733 15.88 19.5733 16.3333 18.6667 16.3333H7.82667L6.8 18.4133L6.66667 19C6.66667 19.3536 6.80714 19.6928 7.05719 19.9428C7.30724 20.1929 7.64638 20.3333 8 20.3333H22.6667V21.6667H8C7.29276 21.6667 6.61448 21.3857 6.11438 20.8856C5.61428 20.3855 5.33333 19.7072 5.33333 19C5.33294 18.5476 5.44765 18.1025 5.66667 17.7067L6.62667 15.7467L1.78667 4.33333H0V3H2.66667L3.8 5.66667H7.64877L9.07734 7H4.36L7.76 15H18.6667C19.1067 15 19.4933 14.7867 19.7333 14.4667L23.7333 9.13333C23.9067 8.90667 24 8.62667 24 8.33333C24 7.97971 23.8595 7.64057 23.6095 7.39052C23.3594 7.14048 23.0203 7 22.6667 7Z" fill="#0A4976"/>
</g>
</svg>
