<svg width="37" height="46" viewBox="0 0 37 46" fill="none" xmlns="http://www.w3.org/2000/svg">
<path d="M35.3096 29.4988C35.3098 28.8408 36.6421 28.4475 36.6983 28.9725C35.984 34.8329 35.2904 38.0822 35.0841 39.1531C34.8628 40.7469 34.3864 42.2924 33.6739 43.7361C33.1393 44.1729 32.4833 44.4355 31.795 44.4881C27.656 45.1225 23.4764 45.455 19.2891 45.4822C15.7398 45.5385 12.1884 45.4631 9.55965 45.2381C7.97898 45.2286 6.42241 44.8487 5.01472 44.1297C4.47472 43.5616 4.06571 42.8829 3.81258 42.1404C3.52383 41.1692 3.28523 40.1862 3.09773 39.1912C1.65208 33.6317 1.10692 32.3338 0.694412 31.0213C0.450916 30.0821 2.29197 29.9134 2.57332 31.0213L4.50984 38.8719C4.75357 39.7343 4.96225 40.7132 5.31844 41.6131C5.49899 42.1082 5.78719 42.5572 6.16219 42.9276C6.67981 43.1438 7.23598 43.2529 7.79695 43.2469C10.6818 43.4957 13.5776 43.5956 16.4727 43.5467C21.2258 43.5279 26.3895 43.3783 29.6202 43.0408C30.3574 42.9905 31.0913 42.8965 31.8175 42.7596C31.9958 42.7224 32.1717 42.6719 32.3428 42.6092C33.0281 40.9573 33.5139 39.2296 33.7901 37.4627C34.3988 34.6212 34.9349 31.8783 35.21 30.1668L35.3096 29.4988ZM29.8077 18.3406C29.8843 18.3406 29.9606 18.3561 30.0313 18.3856C30.1021 18.415 30.1668 18.4581 30.2208 18.5125C31.317 19.7212 32.3634 20.9744 33.3575 22.2684C34.0366 23.1382 34.6641 24.0474 35.2364 24.991C35.4427 25.3305 36.1567 26.2325 36.4942 26.8699C36.6514 27.1709 36.7295 27.507 36.7198 27.8465C36.6261 28.5233 35.3491 28.7859 34.6534 28.7859C32.3452 29.0672 27.4044 29.4252 22.0137 29.6502C18.1456 29.8002 14.1438 29.9129 10.6319 29.9129C7.88724 29.9293 5.47417 29.8164 3.73054 29.7879L3.02351 29.782C2.68601 29.782 -0.374346 29.9128 0.0381618 28.2215C0.300661 27.5634 0.634891 26.9314 1.03426 26.3445C1.72978 25.2553 2.3469 24.1849 2.91121 23.077C3.47558 21.9688 4.03953 20.8584 4.56453 19.7147C4.59287 19.6517 4.63338 19.5949 4.68367 19.5477C4.73389 19.5005 4.79306 19.4637 4.8575 19.4393C4.92212 19.4149 4.99159 19.4028 5.06062 19.4051C5.12944 19.4074 5.19712 19.4236 5.25984 19.452C5.34514 19.4645 5.42682 19.4984 5.49617 19.5496C5.5653 19.6008 5.62129 19.6682 5.65828 19.7459C5.69526 19.8237 5.71202 19.9099 5.70808 19.9959C5.70408 20.0819 5.6788 20.166 5.63484 20.2401C4.67223 22.5746 3.60028 24.8626 2.42293 27.0965C2.3291 27.2653 1.87918 27.8463 1.67293 28.2401H1.99422C3.49619 28.2775 6.70773 28.1465 10.463 28.034L21.4864 27.6951C25.7521 27.5639 29.7707 27.4699 32.4932 27.3387L34.5968 27.2068C34.3344 26.6987 34.1467 25.9863 34.0343 25.7801C33.5168 24.8627 32.9528 23.974 32.3428 23.1141C31.4241 21.8185 30.4081 20.5581 29.3956 19.3563C29.2846 19.244 29.2227 19.0923 29.2227 18.9344C29.2228 18.7765 29.2846 18.6248 29.3956 18.5125C29.4496 18.4581 29.5143 18.415 29.585 18.3856C29.6556 18.3562 29.7313 18.3407 29.8077 18.3406ZM19.1778 23.0193C20.7547 23.0193 22.3154 23.2086 23.9298 23.3211C24.0085 23.3161 24.0875 23.3268 24.1622 23.3524C24.2369 23.378 24.3061 23.4182 24.3653 23.4705C24.4246 23.523 24.4733 23.5868 24.5079 23.658C24.5424 23.7292 24.5619 23.8066 24.5665 23.8856C24.5716 23.9619 24.5618 24.0387 24.5372 24.1111C24.5126 24.1836 24.4744 24.2509 24.4239 24.3084C24.3735 24.3658 24.3118 24.4124 24.2432 24.4461C24.1746 24.4798 24.0998 24.4999 24.0235 24.5047C22.2572 24.7485 20.5107 25.0672 18.7257 25.0672H15.5889C14.0123 25.0297 12.4731 24.8983 10.8946 24.8983C10.8156 24.9121 10.7337 24.9087 10.6563 24.8875C10.5791 24.8663 10.5072 24.8273 10.4464 24.7752C10.3858 24.7232 10.3375 24.6585 10.3048 24.5858C10.2719 24.5126 10.2554 24.4325 10.2569 24.3524C10.2505 24.215 10.2946 24.0795 10.3809 23.9725C10.4673 23.8656 10.5901 23.7941 10.7257 23.7713C12.4744 23.4001 14.2401 23.1493 16.0225 23.0193H19.1778ZM15.2911 0.668763C17.6774 0.264837 20.1304 0.585602 22.3321 1.59064C24.5908 2.49661 26.4732 4.14674 27.6671 6.2674C28.3364 7.63182 28.6951 9.12769 28.7178 10.6473C28.7405 12.1671 28.4264 13.6735 27.7979 15.0574C27.2358 16.4486 26.3628 17.6929 25.2462 18.6951C24.1297 19.6972 22.7989 20.4305 21.3555 20.8397C21.2792 20.8625 21.1985 20.8705 21.1192 20.8621C21.0401 20.8537 20.9634 20.8292 20.8936 20.7908C20.8239 20.7525 20.7624 20.7008 20.713 20.6385C20.6634 20.5761 20.6271 20.5042 20.6055 20.4276C20.5829 20.3525 20.5754 20.2731 20.5841 20.1951C20.5927 20.1173 20.6169 20.0416 20.6553 19.9734C20.6938 19.9053 20.7456 19.8453 20.8077 19.7977C20.87 19.75 20.9417 19.7155 21.0177 19.6961C22.2553 19.298 23.3871 18.6253 24.3272 17.7274C25.2673 16.8294 25.9919 15.7296 26.4464 14.5115C26.9344 13.3294 27.1586 12.0549 27.1036 10.7772C27.0485 9.49931 26.715 8.24896 26.127 7.1131C25.0661 5.39518 23.4689 4.07435 21.5821 3.35529C19.7336 2.5525 17.693 2.29849 15.7042 2.62384C14.1124 2.9401 12.6186 3.6321 11.3477 4.64142C10.077 5.65071 9.06499 6.94879 8.39656 8.42755C7.71262 9.89901 7.49197 11.5437 7.76375 13.1434C8.03565 14.7433 8.7872 16.2235 9.91902 17.3865C10.3602 17.8549 10.8382 18.2873 11.3468 18.6815C11.831 19.0986 12.3751 19.4408 12.961 19.6961C13.6538 19.992 14.3892 20.1765 15.1397 20.242C16.3078 20.3732 17.4852 20.3732 18.6514 20.242C18.7214 20.2296 18.7932 20.231 18.8624 20.2469C18.9316 20.2628 18.9972 20.2931 19.0548 20.3348C19.1124 20.3765 19.1616 20.4292 19.1983 20.4901C19.2351 20.551 19.2595 20.6188 19.2696 20.6893C19.2797 20.7597 19.2751 20.8315 19.2569 20.9002C19.2387 20.9689 19.2067 21.0335 19.1632 21.0897C19.1196 21.1458 19.065 21.1927 19.003 21.2274C18.941 21.262 18.8724 21.2841 18.8018 21.2918C17.5606 21.4915 16.3016 21.5604 15.046 21.4979C13.5138 21.4052 12.0366 20.9017 10.7696 20.0418L10.5216 19.8611C9.93781 19.4186 9.38672 18.9378 8.86922 18.4178C7.44285 17.0783 6.4651 15.331 6.06844 13.4149C5.67178 11.4987 5.87602 9.50647 6.6534 7.71076C7.42161 5.92943 8.60786 4.35942 10.1114 3.13361C11.6149 1.90784 13.3916 1.0624 15.2911 0.668763ZM19.1563 4.23419C19.3024 4.17855 19.4646 4.18038 19.6095 4.23908C19.7357 4.30709 19.8325 4.41955 19.8809 4.55451C19.9294 4.68947 19.9263 4.83774 19.8721 4.97052V6.07892C19.8903 6.22892 19.8904 6.38107 19.8721 6.53107C19.834 6.67824 19.7705 6.81771 19.6846 6.94318L19.5528 7.09357C20.0713 7.27983 20.5641 7.53174 21.0177 7.84454C21.1312 7.92422 21.2104 8.04462 21.2384 8.18048C21.2662 8.31629 21.2409 8.45805 21.168 8.57599C21.1302 8.63408 21.0808 8.6844 21.0235 8.72345C20.9661 8.76252 20.9011 8.78958 20.8331 8.80353C20.7651 8.81745 20.6951 8.81782 20.627 8.80451C20.559 8.79119 20.4943 8.76482 20.4366 8.72638C19.2535 8.01199 15.9096 7.48725 16.1534 9.36603C16.1723 9.60946 16.3617 9.74075 16.5303 9.87189C16.8429 10.0651 17.1766 10.2223 17.5245 10.3406C18.6133 10.597 19.6371 11.0774 20.5303 11.7508C20.8158 12.0153 21.0333 12.3452 21.1641 12.7117C21.2949 13.0782 21.3356 13.4708 21.2823 13.8563C21.186 14.5094 20.8682 15.1098 20.3829 15.5574C19.8974 16.0051 19.2724 16.2731 18.6134 16.3162C17.9535 16.4099 17.2801 16.3992 16.6221 16.2811C16.6316 16.3494 16.6316 16.4188 16.6221 16.4871C16.6163 16.648 16.5847 16.807 16.5284 16.9578C16.4822 17.1077 16.4196 17.2511 16.3409 17.3885C16.1346 17.7022 15.9098 18.0026 15.6661 18.2889C15.6001 18.4267 15.4843 18.5345 15.3419 18.5897C15.1994 18.6448 15.0411 18.6431 14.8995 18.5858C14.758 18.5283 14.6439 18.4188 14.5802 18.2801C14.5164 18.1413 14.5081 17.9834 14.5567 17.8387V16.7303C14.5779 16.5718 14.6093 16.415 14.6505 16.2606C14.707 16.0832 14.7952 15.9171 14.9122 15.7723C14.6275 15.6536 14.3588 15.5034 14.1065 15.3211C13.8046 15.1149 13.5441 14.8516 13.336 14.5516C13.0523 14.1441 12.8265 13.7058 12.6602 13.2371C12.604 13.0916 12.6064 12.9297 12.6671 12.786C12.7281 12.6419 12.8433 12.5266 12.9874 12.4656C13.1314 12.4047 13.2937 12.4022 13.4395 12.4588C13.5852 12.5153 13.7033 12.6264 13.7686 12.7684C13.8994 13.0737 14.0634 13.3644 14.2579 13.6336C14.4159 13.8563 14.6213 14.0412 14.8585 14.1766C15.7439 14.6108 16.7319 14.7929 17.7139 14.702C18.52 14.6082 19.2698 14.2689 19.3262 13.6317C19.3825 12.9923 18.7823 12.8606 18.2198 12.6356C17.1899 12.3528 16.2035 11.9297 15.2891 11.3777C14.9874 11.1623 14.7385 10.8813 14.5596 10.5565C14.3808 10.2316 14.2766 9.87101 14.2559 9.50079C14.2209 9.17003 14.2515 8.8354 14.3458 8.51642C14.4401 8.19745 14.5965 7.89998 14.8057 7.64142C15.015 7.38284 15.2731 7.16732 15.5655 7.00861C15.8578 6.84993 16.179 6.75126 16.5098 6.71661C16.9284 6.66944 17.3511 6.66947 17.7696 6.71661C17.7582 6.59757 17.7582 6.47726 17.7696 6.35822C17.7915 6.19864 17.83 6.04161 17.8829 5.88947C17.9429 5.74946 18.0114 5.61138 18.0889 5.47638C18.3132 5.14879 18.5584 4.83544 18.8223 4.53888C18.8914 4.39896 19.0105 4.28981 19.1563 4.23419Z" fill="#FBAE42"/>
</svg>
